<?xml version="1.0" encoding="UTF-8" standalone="no"?>
<!-- Created with Inkscape (http://www.inkscape.org/) -->

<svg
   xmlns:dc="http://purl.org/dc/elements/1.1/"
   xmlns:cc="http://creativecommons.org/ns#"
   xmlns:rdf="http://www.w3.org/1999/02/22-rdf-syntax-ns#"
   xmlns:svg="http://www.w3.org/2000/svg"
   xmlns="http://www.w3.org/2000/svg"
   xmlns:sodipodi="http://sodipodi.sourceforge.net/DTD/sodipodi-0.dtd"
   xmlns:inkscape="http://www.inkscape.org/namespaces/inkscape"
   version="1.1"
   id="svg2"
   width="526.92957"
   height="465.36325"
   viewBox="0 0 579.62252 511.89958"
   sodipodi:docname="logo.svg"
   inkscape:version="0.92.3 (unknown)">
  <metadata
     id="metadata8">
    <rdf:RDF>
      <cc:Work
         rdf:about="">
        <dc:format>image/svg+xml</dc:format>
        <dc:type
           rdf:resource="http://purl.org/dc/dcmitype/StillImage" />
        <dc:title></dc:title>
      </cc:Work>
    </rdf:RDF>
  </metadata>
  <defs
     id="defs6" />
  <sodipodi:namedview
     pagecolor="#ffffff"
     bordercolor="#666666"
     borderopacity="1"
     objecttolerance="10"
     gridtolerance="10"
     guidetolerance="10"
     inkscape:pageopacity="0"
     inkscape:pageshadow="2"
     inkscape:window-width="1653"
     inkscape:window-height="925"
     id="namedview4"
     showgrid="false"
     scale-x="1.1"
     fit-margin-top="0"
     fit-margin-left="0"
     fit-margin-right="0"
     fit-margin-bottom="0"
     inkscape:zoom="1.4047619"
     inkscape:cx="366.97713"
     inkscape:cy="265.39726"
     inkscape:window-x="2359"
     inkscape:window-y="1073"
     inkscape:window-maximized="0"
     inkscape:current-layer="svg2" />
  <path
     style="fill:#000000;stroke-width:0.90909094"
     d="M 146.11328 398.19922 C 143.46919 398.17764 140.83456 398.87944 138.71094 400.31055 C 131.02626 405.48925 127.89617 416.28098 130.03711 430.21484 C 131.27215 438.25281 137.95633 444.60742 145.17578 444.60742 C 148.51468 444.60742 151.06241 443.40976 154.46484 440.23633 L 156.96484 437.9043 L 156.96484 441.74609 C 156.96484 452.40674 148.20919 457.98502 137.47852 454.16211 C 135.51158 453.46137 133.56822 453.09547 133.16016 453.34766 C 131.98121 454.07628 132.3005 461.55994 133.55469 462.5957 C 134.17969 463.11185 136.12305 463.94338 137.87305 464.44336 C 142.35599 465.72414 145.71122 465.67588 151.80469 464.24219 C 158.32277 462.70859 162.78125 459.23881 165.93945 453.23828 C 168.32443 448.70685 168.32929 448.65433 168.62109 423.92578 L 168.91211 399.15234 L 163.30859 399.15234 C 158.55936 399.15234 157.6342 399.41755 157.25 400.88672 C 156.81796 402.53882 156.64502 402.51686 153.57227 400.43164 C 151.4119 398.96557 148.75738 398.22079 146.11328 398.19922 z M 149.16797 408.22461 C 151.05818 408.18788 152.98517 409.10843 154.61133 411.04102 C 156.68383 413.50404 156.96484 414.64849 156.96484 420.63086 C 156.96484 428.31381 155.58793 431.88227 151.99023 433.52148 C 150.67922 434.11883 149.31827 434.60102 148.9668 434.59375 C 147.00772 434.55266 143.6119 431.92879 142.48242 429.58203 C 140.73471 425.95072 140.8955 416.61435 142.76758 412.99414 C 144.36734 409.90055 146.73769 408.27183 149.16797 408.22461 z "
     transform="scale(1.1)"
     id="path4600" />
  <path
     style="fill:#000000;stroke-width:0.90909094"
     d="M 462.1543 398.39648 C 460.23951 398.33813 458.29511 398.56338 456.62891 399.11328 C 452.5299 400.46607 448.34161 405.45829 446.40039 411.30273 C 444.1088 418.20208 445.01806 431.3142 448.16016 436.67578 C 451.03591 441.58289 454.25772 443.82163 459.25391 444.38477 C 463.46793 444.85975 468.24755 442.93515 470.76562 439.75 C 472.86595 437.09326 473.57752 438.22538 472.85156 443.06641 C 471.31614 453.30539 463.04306 458.08012 453.64258 454.15234 C 451.84757 453.40234 449.99905 452.78906 449.53516 452.78906 C 449.07127 452.78906 448.81489 455.14258 448.96484 458.01758 L 449.23633 463.24414 L 453.32812 464.35938 C 457.68491 465.5477 464.43608 465.29566 469.75 463.74414 C 474.98099 462.21684 480.23006 457.06545 482.36133 451.36914 C 484.07879 446.77882 484.23633 444.37177 484.23633 422.75586 L 484.23633 399.15234 L 478.7832 399.15234 C 473.93472 399.15234 473.32812 399.35454 473.32812 400.9707 C 473.32813 403.28702 472.58565 403.26314 470.0332 400.86523 C 468.45117 399.379 465.3456 398.49373 462.1543 398.39648 z M 464.83398 408.32812 C 469.6078 408.11679 473.34065 413.18282 473.30859 420.50195 C 473.2829 426.36913 470.53242 432.51428 467.40039 433.70508 C 464.64042 434.75443 464.43259 434.75365 461.78516 433.6875 C 454.57037 430.78201 455.3071 411.38685 462.73242 408.75 C 463.44896 408.49555 464.15201 408.35832 464.83398 408.32812 z "
     transform="scale(1.1)"
     id="path4596" />
  <path
     style="fill:#000000;stroke-width:0.90909094"
     d="M 102.88672 398.32422 C 96.60257 398.33883 92.48565 399.99175 88.726562 403.86523 C 84.031181 408.70351 81.988794 415.40126 82.695312 423.65039 C 83.558531 433.72912 87.078165 439.46138 94.460938 442.8125 C 103.57204 446.94813 115.01698 443.52468 120.14062 435.13281 C 122.72271 430.9037 122.87305 430.133 122.87305 421.04297 C 122.87305 412.52705 122.62131 410.98453 120.66797 407.57422 C 117.37553 401.82598 112.51392 398.84882 105.7168 398.41602 C 104.72533 398.35288 103.78445 398.32213 102.88672 398.32422 z M 103.66406 408.26367 C 105.56101 408.33312 107.42704 409.07452 108.83594 410.57422 C 110.64171 412.49637 111.08357 414.05539 111.35742 419.47852 C 111.75676 427.38647 110.06048 432.34916 106.49414 433.70508 C 102.29671 435.30093 98.8141 434.16004 96.337891 430.38086 C 94.343027 427.33632 94.083954 417.40865 95.888672 413.13477 C 97.254246 409.90084 100.50248 408.14793 103.66406 408.26367 z "
     transform="scale(1.1)"
     id="path4592" />
  <path
     style="fill:#000000;stroke-width:0.90909094"
     d="M 284.39453 398.70898 C 273.58757 398.72258 271.14806 399.98419 270.77734 405.75195 C 270.47169 410.50745 270.73647 410.67323 275.46094 408.69922 C 279.77746 406.89564 286.42892 406.92892 288.26367 408.76367 C 290.45444 410.95444 290.10216 414.49362 287.64648 414.9668 C 273.61058 417.67135 270.85015 418.96548 268.48242 423.95508 C 266.57909 427.96606 266.52596 434.76199 268.37109 438.33008 C 269.14537 439.82736 271.08873 441.85015 272.68945 442.82617 C 277.46597 445.73859 284.39476 444.70841 287.82422 440.57617 C 289.44268 438.62604 290.59961 438.79059 290.59961 440.9707 C 290.59961 442.59049 291.20614 442.78904 296.1543 442.78906 L 301.70898 442.78906 L 301.36133 426.19922 C 301.06244 411.92799 300.76312 409.10678 299.2168 406.0293 C 296.19847 400.02224 293.51399 398.69753 284.39453 398.70898 z M 288.44727 422.82031 C 290.29124 422.77128 290.59911 423.1399 290.5957 424.26562 C 290.58537 427.74662 288.64963 432.79628 286.98438 433.6875 C 284.64447 434.93978 280.29544 434.84818 278.96484 433.51758 C 277.24029 431.79302 277.65451 426.90484 279.68164 425.07031 C 280.7055 424.14374 283.46704 423.24379 286.04492 422.99609 C 287.04641 422.89986 287.83261 422.83666 288.44727 422.82031 z "
     transform="scale(1.1)"
     id="path4588" />
  <path
     inkscape:connector-curvature="0"
     style="fill:#000000"
     d="m 343.07508,487.15192 c -0.22797,-0.22916 -0.4145,-11.14166 -0.4145,-24.25 v -23.83333 h 6 6 v 23.90745 23.90745 l -5.5855,0.34255 c -3.07202,0.1884 -5.77202,0.15505 -6,-0.0741 z"
     id="path4584" />
  <path
     inkscape:connector-curvature="0"
     style="fill:#000000"
     d="m 394.74815,487.26445 c -0.72086,-0.24029 -1.09254,-5.64503 -1.10231,-16.02919 -0.0151,-16.02883 -0.65602,-19.32818 -4.18249,-21.53011 -2.71802,-1.69714 -7.06053,0.40145 -9.05122,4.37416 -1.4276,2.84899 -1.74873,6.19595 -1.75,18.23928 l -0.002,14.75 h -6 -6 v -24 -24 h 6 c 5.69465,0 6,0.12423 6,2.44098 0,2.86468 1.53793,4.20553 2.36163,2.059 1.68728,-4.39698 12.78946,-7.09504 17.91271,-4.35316 6.27481,3.35818 7.72566,9.25543 7.72566,31.4024 v 16.45078 l -2.75,0.0812 c -1.5125,0.0447 -3.9481,0.17032 -5.41243,0.27919 -1.46434,0.10887 -3.15184,0.0348 -3.75,-0.16457 z"
     id="path4582" />
  <path
     inkscape:connector-curvature="0"
     style="fill:#000000"
     d="m 473.99407,487.26945 -5.1665,-0.29937 -0.3335,-16.84788 c -0.29459,-14.88289 -0.55567,-17.09313 -2.23848,-18.95063 -2.03819,-2.24979 -5.58195,-2.7153 -8.55557,-1.12387 -3.11771,1.66833 -4.03944,6.72719 -4.03944,22.17011 v 14.85078 h -6.5181 -6.5181 l 0.2681,-23.75 0.2681,-23.75 6.25,-0.29772 6.25,-0.29771 v 3.1513 3.15131 l 3.51834,-3.08914 c 4.15491,-3.64806 7.1587,-4.55882 12.61968,-3.82635 9.20762,1.235 10.98463,5.78722 11.63245,29.79913 0.56392,20.90219 1.06964,19.60272 -7.43698,19.10982 z"
     id="path4580" />
  <path
     style="fill:#000000;stroke-width:0.90909094"
     d="M 41.835938 381.08789 C 40.657736 381.07831 39.484681 381.09111 38.328125 381.12891 L 29.236328 381.42578 L 28.998047 412.10742 L 28.757812 442.78906 L 41.724609 442.75 C 55.684237 442.70704 59.088085 441.98752 65.121094 437.80664 C 72.771703 432.50476 76.533169 423.44956 76.455078 410.51758 C 76.408469 402.80035 76.054176 400.66909 74.107422 396.41992 C 71.519249 390.77073 66.990663 385.80403 62.900391 384.12695 C 58.551139 382.34369 50.083347 381.15497 41.835938 381.08789 z M 41.509766 392.78906 L 46.539062 392.78906 C 52.756844 392.78906 56.771545 394.39958 59.9375 398.16211 C 66.7608 406.27115 65.019562 423.41618 56.777344 429.28516 C 54.573998 430.85407 52.256997 431.47886 47.666016 431.73828 L 41.509766 432.08594 L 41.509766 412.4375 L 41.509766 392.78906 z "
     id="path4578"
     transform="scale(1.1)" />
  <path
     inkscape:connector-curvature="0"
     style="fill:#000000"
     d="m 232.66058,459.60903 v -27.45956 l -8.25,-0.29044 -8.25,-0.29044 -0.29897,-5.71866 c -0.27464,-5.25337 -0.11192,-5.76457 2,-6.28298 1.26443,-0.31037 11.74897,-0.43698 23.29897,-0.28134 l 21,0.28298 v 6 6 l -8.25,0.29044 -8.25,0.29044 v 27.45956 27.45956 h -6.5 -6.5 z"
     id="path4574" />
  <path
     inkscape:connector-curvature="0"
     style="fill:#000000"
     d="m 263.66058,463.06859 v -24 h 6 6 v 3.66639 3.66639 l 3.91101,-4.23639 c 3.32372,-3.60024 4.4124,-4.18833 7.25,-3.91639 3.32667,0.31882 3.33939,0.34029 3.44647,5.82 0.1424,7.28726 -0.0758,7.66047 -4.19759,7.17927 -2.67905,-0.31276 -4.12247,0.14154 -5.97287,1.87989 -3.49949,3.28761 -4.42513,7.81836 -4.43144,21.69084 l -0.006,12.25 h -6 -6 z"
     id="path4572" />
  <path
     inkscape:connector-curvature="0"
     style="fill:#000000"
     d="m 416.89248,463.31859 0.2681,-23.75 6.25,-0.29772 6.25,-0.29771 v 24.04771 24.04772 h -6.5181 -6.5181 z"
     id="path4570" />
  <path
     inkscape:connector-curvature="0"
     style="fill:#000000"
     d="m 343.66058,429.06859 c -3.00901,-3.00901 -2.66662,-8.33048 0.70672,-10.98394 4.73067,-3.72115 11.29328,-0.44433 11.29328,5.63893 0,4.20585 -2.99171,7.34501 -7,7.34501 -1.66667,0 -3.88889,-0.88889 -5,-2 z"
     id="path4568" />
  <path
     inkscape:connector-curvature="0"
     style="fill:#000000"
     d="m 418.97314,430.28293 c -0.65309,-0.41528 -1.68591,-2.06613 -2.29516,-3.66857 -2.45144,-6.44777 3.74936,-12.26911 9.75873,-9.16154 7.11497,3.6793 4.89918,13.6378 -3.02613,13.60046 -1.7875,-0.008 -3.78435,-0.35508 -4.43744,-0.77035 z"
     id="path4566" />
  <path
     style="fill:#3b0078;fill-opacity:1"
     d="m 215.68775,388.33203 c -17.74171,-7.77474 -20.65523,-31.7028 -39.02717,-38.71571 -16.66702,-8.46007 -37.99638,-12.6729 -47.89503,-30.22988 -8.96907,-8.78445 -1.30023,-21.20599 7.87001,-26.01695 13.24346,-9.30447 29.01128,-14.1844 44.80162,-16.95372 15.99551,-2.41712 32.90297,-3.72511 48.35188,1.8632 16.84584,9.54959 22.62559,30.2724 22.68599,48.47516 0.67025,15.19601 1.45468,30.8143 -3.23064,45.47719 -1.3904,6.84314 -5.92872,14.90039 -12.0786,17.82653 -7.17221,-0.15449 -14.52294,0.33853 -21.47806,-1.72582 z"
     id="path4564"
     inkscape:connector-curvature="0" />
  <path
     style="fill:#3b0078;fill-opacity:1"
     d="m 278.00693,358.49665 c -11.83031,-5.18834 -12.12114,-20.66645 -7.01121,-30.67739 6.64539,-9.20817 16.18286,-16.62901 27.35716,-19.25838 11.21195,-3.51222 26.08567,-2.54745 33.40075,7.72568 6.51867,9.53505 3.41191,22.78154 -5.47362,29.74257 -7.59818,8.48036 -17.82081,13.86289 -28.88699,15.79918 -6.61536,0.43144 -13.72918,0.77458 -19.38609,-3.33166 z"
     id="path4562"
     inkscape:connector-curvature="0" />
  <path
     style="fill:#3b0078;fill-opacity:1"
     d="m 292.25436,283.32963 c -11.26218,0.38409 -22.57242,-9.30601 -20.66962,-21.21675 1.00509,-15.56153 14.72968,-26.14573 26.5187,-34.37658 10.49289,-3.77752 22.87537,-10.59957 33.72287,-3.93214 8.83883,5.4751 15.33408,16.9194 9.76231,26.92332 -6.56195,12.27396 -16.92412,22.97922 -29.48691,29.0407 -6.51332,1.5315 -12.92198,4.77538 -19.84735,3.56145 z"
     id="path4560"
     inkscape:connector-curvature="0" />
  <path
     style="fill:#3b0078;fill-opacity:1"
     d="m 165.07508,254.94188 c -10.06762,-4.42554 -14.41405,-16.60421 -14.49367,-26.95448 -0.31356,-15.10123 6.0161,-30.68379 18.58447,-39.50474 9.29778,-5.23322 22.09879,-2.09511 27.32666,7.43592 6.75069,9.50782 4.48193,21.73096 4.26071,32.64676 -2.4283,9.9863 -8.32205,18.93591 -16.48073,25.22708 -5.38856,4.72883 -13.19439,4.634 -19.19744,1.14946 z"
     id="path4558"
     inkscape:connector-curvature="0" />
  <path
     style="fill:#3b0078;fill-opacity:1"
     d="m 234.78877,242.30493 c -12.62839,-5.01358 -13.27173,-20.55004 -11.54803,-32.00115 3.6204,-10.4179 6.60871,-21.65362 14.60307,-29.53281 6.25945,-9.13312 17.78501,-11.10365 28.0758,-10.05016 11.21476,1.20537 14.25552,15.24411 13.60557,24.7294 -1.36624,18.70941 -11.5596,37.04079 -27.51754,47.0567 -5.5996,2.458 -11.87751,3.59755 -17.21887,-0.20198 z"
     id="path4556"
     inkscape:connector-curvature="0" />
  <path
     inkscape:connector-curvature="0"
     style="fill:#000000"
     d="m 375.95796,211.48793 c -20.89608,-3.50813 -35.53044,-17.10104 -40.28629,-37.41934 -0.70806,-3.025 -1.75067,-7.075 -2.31692,-9 -0.63249,-2.1502 -1.18732,-26.15739 -1.43865,-62.25 l -0.40911,-58.750001 h 8.98677 8.98678 l 0.47688,57.250001 c 0.4563,54.77796 0.91133,63.46103 3.62899,69.25 0.5164,1.1 1.73802,3.8 2.7147,6 1.85469,4.17771 11.56649,14.49549 13.65419,14.50616 0.6629,0.003 2.55528,0.78348 4.20528,1.73353 2.3991,1.38138 5.50373,1.73067 15.5,1.74384 11.6892,0.0154 12.87063,-0.16551 18.21391,-2.78908 5.59374,-2.74654 12.58012,-9.48007 15.31948,-14.76503 0.73283,-1.41382 2.26261,-6.2138 3.39951,-10.66662 1.90426,-7.45825 2.0671,-10.97793 2.0671,-44.67941 V 85.068589 h -15.62244 c -12.37694,0 -15.40991,-0.25968 -14.59936,-1.25 0.56271,-0.6875 3.05572,-5.78282 5.54005,-11.32292 2.48432,-5.54011 5.86001,-12.96511 7.50153,-16.5 1.64152,-3.5349 4.54999,-10.02708 6.46327,-14.42708 1.91328,-4.4 5.14882,-11.6 7.19008,-16 6.91999,-14.91624 8.31679,-17.993622 9.87212,-21.75 1.47719,-3.56763 3.65475,-5.096334 3.65475,-2.565724 0,0.651351 0.8553,3.013851 1.90066,5.25 1.04536,2.236148 4.12058,8.790724 6.83383,14.565724 2.71324,5.775 6.16554,13.425 7.67176,17 1.50623,3.575 3.58277,8.3 4.61455,10.5 2.38697,5.08964 8.43482,18.36556 11.61652,25.5 1.34904,3.025 3.12579,6.72537 3.94835,8.22303 l 1.49554,2.72304 -14.7906,0.27696 -14.79061,0.27697 -0.5847,37.500001 c -0.65772,42.184 -1.37642,47.86189 -7.72126,61 -4.36066,9.02952 -13.36362,18.55713 -20.69404,21.89999 -2.75,1.25407 -5.9,2.68545 -7,3.18084 -2.5739,1.15917 -20.08202,3.94104 -24,3.81337 -1.65,-0.0538 -6.69118,-0.71746 -11.20262,-1.47486 z"
     id="path4554" />
  <path
     style="fill:#000000;stroke-width:0.90909094"
     d="M 441.50977 40.0625 L 441.50977 115.51758 L 441.50977 190.9707 L 449.69141 190.9707 L 457.87305 190.9707 L 457.87305 162.33594 L 457.87305 133.69922 L 469.82812 133.69922 C 488.52336 133.69922 499.30559 130.88631 509.19727 123.42969 C 517.11657 117.4599 524.23023 106.05263 526.06445 96.380859 C 527.21923 90.291786 527.21923 78.923057 526.06445 72.833984 C 524.0323 62.118466 516.29104 51.072316 507.28906 46.041016 C 498.09616 40.903007 492.26077 40.0625 465.76953 40.0625 L 441.50977 40.0625 z M 457.87305 55.285156 L 473.09961 55.726562 C 485.9433 56.099217 489.0883 56.475755 493.18945 58.136719 C 500.01047 60.899228 503.52731 63.849644 506.58984 69.376953 C 509.11671 73.937471 509.23633 74.668151 509.23633 85.517578 C 509.23633 95.797806 509.02365 97.298375 507 101.25977 C 504.2455 106.65186 498.31355 112.2443 492.61914 114.81641 C 488.93581 116.48013 486.17157 116.80858 473.09961 117.13672 L 457.87305 117.51758 L 457.87305 86.402344 L 457.87305 55.285156 z "
     transform="scale(1.1)"
     id="path4552" />
  <path
     style="fill:#000000;stroke-width:0.90909094"
     d="M 146.59961 40.943359 C 142.69137 40.931565 138.70797 41.316508 137.74023 42.107422 C 136.97551 42.732422 135.49616 46.107422 134.45312 49.607422 C 132.51102 56.124358 126.23532 76.718452 117.83203 104.15234 C 115.22839 112.65234 112.89737 120.52734 112.65234 121.65234 C 112.21641 123.65389 112.37996 123.69922 120.30664 123.69922 L 128.4082 123.69922 L 129.95898 118.66211 C 130.81188 115.8923 131.50977 112.91582 131.50977 112.04688 C 131.50977 111.17793 132.14548 109.55851 132.92383 108.44727 C 134.2625 106.53604 134.97807 106.42578 146.12695 106.42578 C 157.51441 106.42578 157.93837 106.49444 158.68555 108.4707 C 159.86662 111.59463 161.29175 116.54707 161.97461 119.89648 C 162.32013 121.59127 163.3216 123.18427 164.25977 123.5332 C 166.67239 124.43053 179.26269 123.41463 179.09766 122.33594 C 178.96064 121.44046 167.97259 84.102682 161.8418 63.699219 C 160.11404 57.949219 158.09013 51.01822 157.34375 48.296875 C 156.59737 45.57552 155.54248 42.813802 155 42.160156 C 154.33952 41.364329 150.50784 40.955154 146.59961 40.943359 z M 146.04883 60.101562 C 146.53698 60.204672 146.96484 60.75055 146.96484 61.662109 C 146.96484 62.541991 148.35367 68.372069 150.05078 74.617188 C 151.7479 80.862297 153.41519 87.300781 153.75781 88.925781 L 154.38086 91.880859 L 145.59961 91.880859 L 136.82031 91.880859 L 137.43359 88.925781 C 138.1186 85.626354 141.46156 72.989655 144.76953 61.199219 C 145.01097 60.33866 145.56067 59.998453 146.04883 60.101562 z "
     transform="scale(1.1)"
     id="path4548" />
  <path
     inkscape:connector-curvature="0"
     style="fill:#000000"
     d="m 21.66058,99.102419 v -36.96617 l -10.75,-0.28383 -10.75,-0.28383 -0.13723,-7.27517 c -0.11508,-6.10062 0.15684,-7.43255 1.68426,-8.25 2.87277,-1.53746 56.4725,-1.2817 57.6677,0.27517 0.52778,0.6875 0.92038,4.4 0.87244,8.25 l -0.0872,7 -10.5,0.5 -10.5,0.5 -0.26232,36.75 -0.26232,36.750001 H 30.14823 21.66055 V 99.102419 Z"
     id="path4544" />
  <path
     inkscape:connector-curvature="0"
     style="fill:#000000"
     d="m 71.90039,90.818589 0.26019,-45.25 21.13551,-0.26955 c 16.36016,-0.20866 21.2449,0.0173 21.61966,1 0.26629,0.69825 0.43031,4.41955 0.3645,8.26955 l -0.11967,7 -13.39527,0.5 -13.39527,0.5 0.20986,9.44999 c 0.11541,5.1975 0.43234,9.81 0.70428,10.25 0.27194,0.44001 5.86788,0.80001 12.43542,0.80001 h 11.94098 v 8 8 h -12.5 -12.5 v 10.500001 10.5 h 14 14 v 8 8 H 94.15039 71.6402 Z"
     id="path4542" />
  <path
     inkscape:connector-curvature="0"
     style="fill:#000000"
     d="m 208.30849,135.38317 c -0.37698,-0.37699 -0.65916,-20.36168 -0.62705,-44.410441 0.0474,-35.47046 0.31367,-43.93688 1.41069,-44.84733 1.94139,-1.61121 22.17046,-1.24128 23.55817,0.43081 0.58178,0.70099 1.71552,3.69055 2.51943,6.64346 2.55212,9.37441 5.29479,19.09424 8.00491,28.36892 1.44642,4.95 3.8923,13.725 5.43529,19.500001 l 2.80542,10.5 1.24724,-4.5 c 3.18279,-11.483381 6.22696,-22.092561 8.17772,-28.500001 1.17213,-3.85 2.47148,-8.35 2.88744,-10 2.05982,-8.17083 6.23696,-21.14544 7.17342,-22.28136 0.7704,-0.9345 4.06152,-1.2052 12.15788,-1 l 11.10153,0.28136 0.26019,45.25 0.26019,45.250001 h -8.51019 -8.51019 l -0.0677,-33.75 c -0.0402,-20.030431 -0.42081,-32.936991 -0.93637,-31.750001 -0.47778,1.1 -3.40542,11 -6.50588,22 -3.10046,11.000001 -7.09946,25.175001 -8.88668,31.500001 l -3.24948,11.5 -7.09366,0.29213 -7.09366,0.29213 -2.18722,-7.29213 c -1.20295,-4.01067 -2.55443,-8.41713 -3.00327,-9.79213 -0.44884,-1.375 -1.59054,-5.2 -2.53711,-8.5 -0.94657,-3.3 -2.74765,-9.375 -4.0024,-13.500001 -1.25475,-4.125 -3.26669,-10.875 -4.47097,-15 -4.67246,-16.00453 -4.4468,-16.94702 -4.72873,19.750001 l -0.26313,34.25 h -6.8202 c -3.75111,0 -7.12865,-0.30844 -7.50563,-0.68542 z"
     id="path4520" />
</svg>
